PathFileType	4	(X/Y/Z)	Patient4_TMGait_0pt8_01_right_41.trc.trc
DataRate	CameraRate	NumFrames	NumMarkers	Units	OrigDataRate	OrigDataStartFrame	OrigNumFrames
85.889570552147	85.889570552147	4	33	mm	85.889570552147	106	       141
Frame#	Time	Sacral			L.Shoulder			Chest			R.Shoulder			Neck			R.ASIS			L.ASIS			R.Thigh.Superior			R.Thigh.Lateral			R.Thigh.Inferior			R.Patella			L.Thigh.Superior			L.Thigh.Lateral			L.Thigh.Inferior			L.Patella			L.Shank.Superior			L.Shank.Lateral			L.Shank.Inferior			R.Shank.Superior			R.Shank.Lateral			R.Shank.Inferior			R.Heel			R.Midfoot.Superior			R.Midfoot.Lateral			R.Toe			L.Heel			L.Midfoot.Lateral			L.Midfoot.Superior			L.Toe			L.Elbow			L.Wrist			R.Elbow			R.Wrist			
		X1	Y1	Z1	X2	Y2	Z2	X3	Y3	Z3	X4	Y4	Z4	X5	Y5	Z5	X6	Y6	Z6	X7	Y7	Z7	X8	Y8	Z8	X9	Y9	Z9	X10	Y10	Z10	X11	Y11	Z11	X12	Y12	Z12	X13	Y13	Z13	X14	Y14	Z14	X15	Y15	Z15	X16	Y16	Z16	X17	Y17	Z17	X18	Y18	Z18	X19	Y19	Z19	X20	Y20	Z20	X21	Y21	Z21	X22	Y22	Z22	X23	Y23	Z23	X24	Y24	Z24	X25	Y25	Z25	X26	Y26	Z26	X27	Y27	Z27	X28	Y28	Z28	X29	Y29	Z29	X30	Y30	Z30	X31	Y31	Z31	X32	Y32	Z32	X33	Y33	Z33	

106	47.232500000000	879.535802192081	1012.592177375514	420.905527822060	1079.514382123160	1445.043476420702	256.982466716004	1170.297223561249	1369.967302015461	422.045101737745	1075.929238841809	1438.377728240533	593.018554722730	1054.267631230514	1500.410685859206	414.656450924482	1102.284135559208	952.413230085356	548.042013627070	1099.885522270277	966.696720752889	274.359843044697	1200.369162463196	805.748509054131	519.576744315122	1182.298411375386	683.627234727544	600.646296861638	1273.716009713510	653.395135317998	519.772443438283	1311.952322293380	549.722525598700	547.701457914593	1129.498077420961	746.262988991023	309.275783421259	1028.858117014370	637.011498002888	248.480583156467	1100.938692658421	552.634085008008	316.898984920653	1093.469179987963	484.917887982207	328.418430379548	1063.922667551550	415.449177657051	320.704922258738	968.344735082046	304.708433181540	275.268430468784	1014.153834251160	192.747299526563	348.198913596591	1256.804499342667	461.246306777682	558.613364929296	1152.839064060421	389.839187204149	620.909611443270	1173.095458430909	279.219418890477	576.501507784776	1000.649445389619	166.508580465421	549.522339928495	1178.256525664350	149.527436851294	595.348436068665	1070.615978187156	122.406742499392	624.682293400351	1265.199641710516	52.572740874661	621.573523942931	880.854473811082	40.596749869531	397.601721038506	950.735454219279	36.759002150760	313.871193026411	1036.323750168999	96.584108062931	337.221571824629	1162.404808449662	41.114822039937	301.251940345490	1124.320167288244	1111.881667818287	102.945588353753	1342.321665734540	967.465423127184	107.509774147448	1018.395917243641	1085.019088103154	688.544577263213	1084.584701681613	831.207120065937	696.122677654643	
107	47.244142857143	879.222384749774	1012.418616380255	420.445844278804	1081.345624346997	1444.833093667626	257.344411775463	1170.913454271215	1369.215201575411	422.838834784473	1075.839119517298	1437.565853309466	593.361167666661	1055.070620020487	1500.066923138903	414.858888553802	1101.727671284750	952.098634026986	548.509665565809	1099.880676862228	966.565739414149	274.541353349670	1199.927050509789	806.653785099193	520.086223599649	1182.045190200566	683.966075968287	601.011412859365	1274.059756985559	654.581876701049	520.834810487189	1313.522458412660	553.248896669940	548.167203909293	1126.384606116618	744.892192280819	309.210187990603	1024.003443434668	637.055948052971	248.094848617496	1094.553074756619	551.638810305654	316.397369619645	1086.111943708324	484.273552253501	327.856226432181	1056.402363134748	415.126244706450	320.295603553403	960.212008828187	304.879221366803	275.014257122756	1005.447383345012	192.709090561232	348.002910651709	1263.490200002836	463.374888552402	558.881605357756	1165.631477110662	385.375323462041	622.536662344783	1192.465535996060	276.471365858803	577.373460916620	1027.827790229124	152.938107371246	552.252131276095	1206.590478922649	147.061434090131	595.816179416094	1101.332742744278	113.156850351297	626.385857248794	1299.644004070200	55.917404628982	620.653737290336	871.572028181709	40.862249793023	397.561671627512	941.423932725420	36.857957224371	313.913882109009	1027.119462405726	96.575830961503	337.136663170336	1153.074071390566	40.936195325909	301.177638327867	1134.024231109142	1114.744475656500	100.899915827376	1359.303701634625	982.451870931318	107.806942956047	1009.016941556390	1086.275600568082	689.021068292720	1056.631568136189	828.215290788324	699.169245191738	
108	47.255785714286	879.090803639418	1012.149940244280	420.208382972828	1083.095798321941	1444.505741100500	257.908392288644	1171.630585963674	1368.304208490300	423.712798488787	1076.032491251247	1436.606663320617	593.874309524677	1055.964020477686	1499.585995236824	415.254857317044	1101.414634264211	951.542034283434	548.934963935773	1099.863455924811	966.325000471124	274.694680535374	1199.167365679806	806.618871697144	520.716999929537	1180.865323374336	683.425241229850	601.477287558399	1273.502349014001	654.662011825092	522.063373517527	1313.920098265516	555.828062758203	548.602860281183	1123.285183586944	743.471878560885	308.965982645069	1019.059538625641	637.098321740187	247.731409453193	1088.145603592091	550.654257310164	315.819918068348	1078.769098109183	483.641050178085	327.228724263132	1048.866856360596	414.825713976414	319.861754937854	952.033141105728	305.084587443071	274.777465137168	996.750169937583	192.699273437862	347.790137117546	1269.153628046240	464.990418442690	559.173953151014	1178.005252503574	380.683419742841	624.280449293778	1211.446875783562	273.987146083069	578.321354139983	1055.652971680842	139.892928069806	555.084621679577	1234.745978256903	145.346313934978	596.295365235490	1132.431975138442	104.690979713721	628.118428436604	1333.597716045540	60.576133986289	619.645687868427	862.290803777922	41.155580539136	397.535177924927	932.110851453937	36.976496906043	313.957919811353	1017.921168039840	96.578081214557	337.043132164203	1143.732870550672	40.762489054132	301.107503464737	1143.306799072703	1117.664083335727	99.162732024337	1375.011384150329	997.633935793553	108.560813107388	999.006488168499	1088.030815240520	689.713744175817	1029.653770359468	827.476199370528	701.924695488731	
109	47.267428571429	879.161324881273	1011.756204689971	420.186928168434	1084.734476207397	1444.065510963383	258.667666463988	1172.420531806157	1367.254671599332	424.666133108104	1076.459941426173	1435.521911039140	594.549831344732	1056.916242395425	1498.965821453042	415.842145730683	1101.367728417946	950.761996664567	549.333910083974	1099.867137134579	965.959664935820	274.841411365378	1198.125722821041	805.640797313429	521.466287937900	1178.890560213056	682.044717999544	602.076586461574	1272.109882411276	653.657009614552	523.390492774661	1313.259690829001	557.448362254746	548.984214621283	1120.226766910840	742.001188560554	308.586276415128	1014.074509924107	637.129931226350	247.401861405650	1081.763241810102	549.674171988194	315.198266389709	1071.488259781894	483.000185440416	326.560091189225	1041.351090157965	414.535030502717	319.417754912329	943.833937796887	305.323920860348	274.565879285473	988.070248731473	192.711169376803	347.566092959224	1273.807409472659	466.086704528654	559.510237762841	1189.774249338444	375.876910833170	626.044294570032	1229.776588439846	271.832481027128	579.302922874558	1083.721072548962	127.553637173164	557.796511216639	1262.286567946771	144.484808127109	596.794737463146	1163.409378834702	97.183469445344	629.776009950494	1366.553175846707	66.597439967856	618.726524970826	853.008061445108	41.479527366258	397.520451171825	922.795855485177	37.118064918608	314.000434060048	1008.727405301741	96.590287146649	336.942358782394	1134.382237862961	40.591919861828	301.041649929140	1152.134972642463	1120.614095955085	97.729648766772	1389.410281371736	1012.892110139844	109.744399728269	988.461893398918	1090.349015852539	690.593462250620	1003.875872745130	828.675007337155	704.382462566243	
